<svg width="18" height="17" viewBox="0 0 18 17" fill="none" xmlns="http://www.w3.org/2000/svg">
<path d="M7.18172 1.51227C8.02153 0.10268 9.97847 0.102682 10.8183 1.51227L17.6706 13.0136C18.5632 14.5118 17.5365 16.4551 15.8524 16.4551H2.14764C0.4635 16.4551 -0.56324 14.5118 0.329352 13.0136L7.18172 1.51227Z" fill="#BC1E6A"/>
<path d="M9.79487 11.5963H8.20513V5.45508H9.79487V11.5963ZM8.28205 14.1639C8.09402 13.961 8 13.7139 8 13.4227C8 13.1315 8.09402 12.8889 8.28205 12.6948C8.47863 12.4918 8.71795 12.3904 9 12.3904C9.28205 12.3904 9.51709 12.4918 9.70513 12.6948C9.90171 12.8889 10 13.1315 10 13.4227C10 13.7139 9.90171 13.961 9.70513 14.1639C9.51709 14.358 9.28205 14.4551 9 14.4551C8.71795 14.4551 8.47863 14.358 8.28205 14.1639Z" fill="white"/>
</svg>
